<?xml version="1.0" standalone="no"?>
<!DOCTYPE svg PUBLIC "-//W3C//DTD SVG 20010904//EN"
 "http://www.w3.org/TR/2001/REC-SVG-20010904/DTD/svg10.dtd">
<svg version="1.0" xmlns="http://www.w3.org/2000/svg"
 width="634.000000pt" height="634.000000pt" viewBox="0 0 634.000000 634.000000"
 preserveAspectRatio="xMidYMid meet">
<metadata>
Created by potrace 1.11, written by Peter Selinger 2001-2013
</metadata>
<g transform="translate(0.000000,634.000000) scale(0.100000,-0.100000)"
fill="#000000" stroke="none">
<path d="M1550 3175 c0 -1130 2 -2055 5 -2055 3 0 32 22 64 48 212 170 534
276 781 255 l70 -6 0 1674 0 1674 -103 39 c-138 54 -468 221 -655 334 -85 51
-156 92 -158 92 -2 0 -4 -925 -4 -2055z"/>
<path d="M3270 3170 c0 -1133 2 -2060 5 -2060 3 0 33 23 67 50 209 168 477
261 753 260 193 -1 432 -79 629 -205 30 -19 58 -35 61 -35 3 0 5 778 5 1729
l0 1728 -86 7 c-321 24 -786 209 -1291 512 -68 41 -127 74 -133 74 -7 0 -10
-678 -10 -2060z"/>
<path d="M2975 1384 c-69 -21 -165 -56 -165 -60 0 -2 24 -16 53 -30 28 -15 83
-46 120 -70 37 -24 70 -44 72 -44 3 0 5 50 5 110 0 125 4 120 -85 94z"/>
</g>
</svg>
