<?xml version="1.0" standalone="no"?>
<!DOCTYPE svg PUBLIC "-//W3C//DTD SVG 20010904//EN"
 "http://www.w3.org/TR/2001/REC-SVG-20010904/DTD/svg10.dtd">
<svg version="1.0" xmlns="http://www.w3.org/2000/svg"
 width="109.000000pt" height="109.000000pt" viewBox="0 0 109.000000 109.000000"
 preserveAspectRatio="xMidYMid meet">
<metadata>
Created by potrace 1.11, written by Peter Selinger 2001-2013
</metadata>
<g transform="translate(0.000000,109.000000) scale(0.100000,-0.100000)"
fill="#000000" stroke="none">
<path d="M105 1071 c-47 -21 -69 -44 -89 -91 -11 -29 -14 -109 -13 -446 l2
-410 27 -41 c51 -78 49 -77 513 -77 464 0 462 0 513 77 l27 41 1 410 c2 336
-1 417 -12 446 -20 47 -42 70 -89 91 -37 17 -73 19 -440 19 -367 0 -403 -2
-440 -19z m535 -173 c62 -18 133 -81 161 -143 39 -84 17 -209 -49 -279 -41
-43 -118 -76 -179 -76 l-53 0 0 -100 c0 -85 -3 -101 -17 -108 -22 -11 -163
-10 -180 1 -10 6 -13 83 -13 326 0 310 1 319 21 345 12 15 31 32 43 37 20 8
235 6 266 -3z"/>
<path d="M385 833 c-13 -12 -15 -61 -15 -299 0 -156 3 -285 8 -285 4 -1 23 -2
43 -3 l36 -2 0 99 c1 63 5 102 12 106 6 4 41 8 77 9 82 2 143 30 180 84 65 93
30 233 -70 285 -44 23 -250 28 -271 6z m227 -84 c34 -16 60 -56 60 -93 0 -70
-41 -105 -126 -110 -83 -5 -90 4 -89 109 1 62 5 90 15 96 19 12 113 11 140 -2z"/>
<path d="M520 656 c0 -34 4 -45 18 -48 35 -8 62 4 69 30 9 36 -8 57 -51 60
l-36 3 0 -45z"/>
</g>
</svg>
